<svg xmlns="http://www.w3.org/2000/svg" width="420" height="360" viewBox="0 0 420 360" fill="none">
  <rect width="420" height="360" fill="transparent"/>
  <ellipse cx="210" cy="320" rx="128" ry="18" fill="#d7dde2"/>

  <g>
    <circle cx="130" cy="110" r="22" fill="#efb391"/>
    <rect x="102" y="132" width="56" height="76" rx="24" fill="#f4f7fb"/>
    <rect x="108" y="206" width="20" height="88" rx="10" fill="#7fb4a8"/>
    <rect x="132" y="206" width="20" height="88" rx="10" fill="#6ca194"/>
    <rect x="106" y="292" width="24" height="10" rx="5" fill="#595d63"/>
    <rect x="130" y="292" width="24" height="10" rx="5" fill="#595d63"/>
    <rect x="94" y="140" width="16" height="60" rx="8" transform="rotate(18 94 140)" fill="#efb391"/>
    <rect x="158" y="140" width="16" height="60" rx="8" transform="rotate(-20 158 140)" fill="#efb391"/>
    <path d="M91 173c-12 4-20 15-22 29l20 6c2-8 6-13 14-17l-12-18z" fill="#6ea89c"/>
  </g>

  <g>
    <circle cx="210" cy="104" r="24" fill="#efb391"/>
    <rect x="178" y="128" width="64" height="82" rx="26" fill="#f7f9fc"/>
    <rect x="184" y="208" width="22" height="94" rx="11" fill="#f1c36a"/>
    <rect x="214" y="208" width="22" height="94" rx="11" fill="#8dc0b4"/>
    <rect x="182" y="300" width="26" height="10" rx="5" fill="#555b62"/>
    <rect x="212" y="300" width="26" height="10" rx="5" fill="#555b62"/>
    <rect x="166" y="138" width="16" height="60" rx="8" transform="rotate(14 166 138)" fill="#efb391"/>
    <rect x="242" y="132" width="16" height="66" rx="8" transform="rotate(-18 242 132)" fill="#efb391"/>
    <path d="M240 176c10 4 17 12 20 25l-20 6c-2-7-5-11-11-15l11-16z" fill="#6ea89c"/>
  </g>

  <g>
    <circle cx="292" cy="116" r="21" fill="#b57a5b"/>
    <circle cx="292" cy="118" r="19" fill="#efb391"/>
    <rect x="266" y="138" width="52" height="72" rx="24" fill="#f7f9fc"/>
    <rect x="272" y="208" width="20" height="90" rx="10" fill="#86bdb1"/>
    <rect x="296" y="208" width="20" height="90" rx="10" fill="#6ea79b"/>
    <rect x="270" y="296" width="24" height="10" rx="5" fill="#4f545b"/>
    <rect x="294" y="296" width="24" height="10" rx="5" fill="#4f545b"/>
    <rect x="320" y="150" width="14" height="58" rx="7" transform="rotate(-20 320 150)" fill="#b57a5b"/>
    <path d="M321 184c14 5 24 16 28 31l-20 6c-2-8-7-14-15-18l7-19z" fill="#e6a2be"/>
  </g>
</svg>
